<?xml version="1.0" encoding="UTF-8"?>
<svg xmlns="http://www.w3.org/2000/svg" xmlns:xlink="http://www.w3.org/1999/xlink" width="12px" height="12px" viewBox="0 0 12 12" version="1.1">
<g id="surface1">
<path style=" stroke:none;fill-rule:nonzero;fill:rgb(0%,0%,0%);fill-opacity:1;" d="M 12.007812 1.894531 C 12.007812 2.738281 12.007812 3.589844 12.007812 4.445312 C 11.914062 4.441406 11.828125 4.433594 11.738281 4.429688 C 11.621094 4.425781 11.503906 4.433594 11.390625 4.410156 C 11.277344 4.386719 11.160156 4.367188 11.042969 4.359375 C 10.929688 4.351562 10.820312 4.351562 10.714844 4.390625 C 10.585938 4.433594 10.453125 4.445312 10.316406 4.445312 C 10.164062 4.445312 10.007812 4.433594 9.851562 4.425781 C 9.757812 4.425781 9.664062 4.433594 9.570312 4.472656 C 9.460938 4.527344 9.347656 4.527344 9.226562 4.476562 C 9.121094 4.433594 9.007812 4.425781 8.90625 4.480469 C 8.757812 4.574219 8.679688 4.707031 8.671875 4.882812 C 8.664062 5.101562 8.714844 5.316406 8.757812 5.527344 C 8.777344 5.644531 8.792969 5.765625 8.785156 5.882812 C 8.765625 6.109375 8.785156 6.328125 8.839844 6.542969 C 8.929688 6.882812 8.816406 7.179688 8.679688 7.472656 C 8.617188 7.613281 8.484375 7.707031 8.402344 7.835938 C 8.324219 7.960938 8.269531 8.097656 8.296875 8.25 C 8.316406 8.382812 8.367188 8.503906 8.410156 8.625 C 8.464844 8.804688 8.550781 8.980469 8.589844 9.167969 C 8.632812 9.320312 8.652344 9.484375 8.679688 9.640625 C 8.699219 9.804688 8.738281 9.964844 8.742188 10.128906 C 8.753906 10.398438 8.796875 10.664062 8.867188 10.929688 C 8.925781 11.140625 8.933594 11.363281 8.859375 11.578125 C 8.839844 11.632812 8.820312 11.699219 8.820312 11.757812 C 8.132812 11.757812 7.445312 11.757812 6.746094 11.757812 C 6.820312 11.691406 6.910156 11.644531 6.984375 11.578125 C 7.144531 11.445312 7.265625 11.296875 7.351562 11.121094 C 7.472656 10.882812 7.527344 10.621094 7.5 10.351562 C 7.480469 10.179688 7.433594 10.011719 7.359375 9.863281 C 7.199219 9.535156 6.945312 9.300781 6.609375 9.148438 C 6.347656 9.039062 6.074219 9 5.792969 9.039062 C 5.550781 9.078125 5.328125 9.167969 5.132812 9.308594 C 4.882812 9.488281 4.707031 9.722656 4.601562 10.003906 C 4.527344 10.214844 4.496094 10.429688 4.527344 10.648438 C 4.554688 10.820312 4.597656 10.988281 4.679688 11.136719 C 4.808594 11.371094 4.984375 11.570312 5.222656 11.710938 C 5.246094 11.726562 5.269531 11.742188 5.289062 11.757812 C 4.835938 11.757812 4.386719 11.757812 3.929688 11.757812 C 3.890625 11.679688 3.824219 11.632812 3.757812 11.585938 C 3.621094 11.503906 3.5625 11.382812 3.570312 11.230469 C 3.570312 11.195312 3.570312 11.164062 3.570312 11.136719 C 3.570312 11.023438 3.582031 10.902344 3.542969 10.796875 C 3.507812 10.695312 3.523438 10.601562 3.566406 10.507812 C 3.582031 10.480469 3.589844 10.445312 3.601562 10.414062 C 3.636719 10.320312 3.65625 10.226562 3.648438 10.121094 C 3.632812 9.945312 3.589844 9.773438 3.601562 9.589844 C 3.617188 9.460938 3.589844 9.320312 3.636719 9.1875 C 3.675781 9.078125 3.683594 8.964844 3.664062 8.851562 C 3.65625 8.773438 3.648438 8.699219 3.664062 8.621094 C 3.695312 8.410156 3.742188 8.210938 3.808594 8.007812 C 3.867188 7.835938 3.863281 7.667969 3.757812 7.507812 C 3.714844 7.445312 3.671875 7.390625 3.628906 7.335938 C 3.527344 7.210938 3.496094 7.058594 3.492188 6.902344 C 3.476562 6.609375 3.449219 6.308594 3.46875 6.007812 C 3.476562 5.878906 3.441406 5.746094 3.460938 5.617188 C 3.507812 5.34375 3.515625 5.066406 3.476562 4.789062 C 3.46875 4.703125 3.449219 4.617188 3.394531 4.546875 C 3.296875 4.425781 3.160156 4.386719 3.007812 4.378906 C 2.878906 4.378906 2.738281 4.386719 2.605469 4.367188 C 2.402344 4.335938 2.203125 4.339844 1.996094 4.351562 C 1.898438 4.359375 1.800781 4.359375 1.707031 4.398438 C 1.609375 4.433594 1.507812 4.445312 1.40625 4.445312 C 1.273438 4.460938 1.132812 4.464844 1.003906 4.480469 C 0.84375 4.5 0.691406 4.519531 0.535156 4.476562 C 0.429688 4.453125 0.328125 4.425781 0.234375 4.386719 C 0.167969 4.359375 0.0859375 4.367188 0.0390625 4.292969 C 0.0390625 4.285156 0.0195312 4.292969 0.0078125 4.304688 C 0.0078125 3.503906 0.0078125 2.699219 0.015625 1.902344 C 0.0390625 1.996094 0.0546875 2.089844 0.09375 2.183594 C 0.1875 2.4375 0.335938 2.652344 0.554688 2.828125 C 0.722656 2.960938 0.917969 3.066406 1.128906 3.117188 C 1.332031 3.167969 1.535156 3.179688 1.742188 3.148438 C 2.117188 3.074219 2.429688 2.90625 2.664062 2.617188 C 2.929688 2.296875 3.039062 1.929688 2.980469 1.527344 C 2.945312 1.199219 2.804688 0.929688 2.570312 0.695312 C 2.382812 0.507812 2.152344 0.375 1.882812 0.308594 C 1.847656 0.300781 1.789062 0.300781 1.757812 0.261719 C 3.085938 0.261719 4.414062 0.261719 5.746094 0.261719 C 5.734375 0.285156 5.710938 0.285156 5.691406 0.289062 C 5.511719 0.335938 5.335938 0.402344 5.183594 0.503906 C 5.023438 0.601562 4.894531 0.730469 4.789062 0.882812 C 4.617188 1.117188 4.527344 1.386719 4.519531 1.667969 C 4.507812 1.867188 4.546875 2.054688 4.621094 2.242188 C 4.765625 2.597656 5.015625 2.851562 5.363281 3.019531 C 5.644531 3.148438 5.933594 3.191406 6.234375 3.148438 C 6.695312 3.074219 7.039062 2.839844 7.285156 2.464844 C 7.460938 2.195312 7.527344 1.898438 7.496094 1.574219 C 7.472656 1.292969 7.367188 1.046875 7.191406 0.824219 C 6.992188 0.566406 6.722656 0.394531 6.398438 0.308594 C 6.351562 0.300781 6.300781 0.300781 6.257812 0.261719 C 7.585938 0.261719 8.914062 0.261719 10.246094 0.261719 C 10.199219 0.300781 10.132812 0.300781 10.078125 0.320312 C 9.816406 0.414062 9.589844 0.546875 9.402344 0.75 C 9.308594 0.851562 9.226562 0.960938 9.171875 1.085938 C 9.046875 1.339844 9 1.621094 9.039062 1.910156 C 9.058594 2.058594 9.113281 2.203125 9.171875 2.34375 C 9.234375 2.464844 9.308594 2.578125 9.410156 2.679688 C 9.492188 2.773438 9.582031 2.851562 9.683594 2.914062 C 9.976562 3.101562 10.304688 3.1875 10.660156 3.160156 C 10.804688 3.140625 10.949219 3.113281 11.085938 3.054688 C 11.316406 2.960938 11.511719 2.820312 11.664062 2.632812 C 11.792969 2.484375 11.886719 2.320312 11.945312 2.132812 C 11.972656 2.054688 11.980469 1.96875 12.007812 1.894531 M 7.507812 6.121094 C 7.507812 6.066406 7.5 6.007812 7.496094 5.953125 C 7.460938 5.597656 7.304688 5.289062 7.039062 5.042969 C 6.824219 4.839844 6.5625 4.714844 6.261719 4.667969 C 5.960938 4.613281 5.671875 4.652344 5.398438 4.773438 C 5.109375 4.902344 4.878906 5.101562 4.722656 5.371094 C 4.59375 5.589844 4.519531 5.832031 4.519531 6.085938 C 4.515625 6.253906 4.546875 6.421875 4.613281 6.589844 C 4.679688 6.789062 4.789062 6.957031 4.941406 7.105469 C 5.042969 7.210938 5.171875 7.304688 5.304688 7.378906 C 5.589844 7.519531 5.886719 7.574219 6.207031 7.539062 C 6.371094 7.519531 6.523438 7.472656 6.675781 7.398438 C 6.851562 7.3125 7.011719 7.191406 7.144531 7.039062 C 7.367188 6.777344 7.492188 6.472656 7.507812 6.121094 Z M 7.507812 6.121094 "/>
<path style=" stroke:none;fill-rule:nonzero;fill:rgb(0%,0%,0%);fill-opacity:1;" d="M 12.007812 1.535156 C 11.992188 1.523438 11.996094 1.5 11.992188 1.480469 C 11.945312 1.238281 11.851562 1.011719 11.699219 0.820312 C 11.503906 0.570312 11.25 0.414062 10.941406 0.320312 C 10.882812 0.300781 10.820312 0.300781 10.761719 0.261719 C 11.175781 0.261719 11.589844 0.261719 12.007812 0.261719 C 12.007812 0.683594 12.007812 1.105469 12.007812 1.535156 Z M 12.007812 1.535156 "/>
<path style=" stroke:none;fill-rule:nonzero;fill:rgb(0%,0%,0%);fill-opacity:1;" d="M 1.238281 0.261719 C 1.21875 0.289062 1.179688 0.289062 1.152344 0.300781 C 0.695312 0.421875 0.355469 0.683594 0.148438 1.105469 C 0.0859375 1.238281 0.0546875 1.378906 0.015625 1.523438 C 0.0078125 1.105469 0.0078125 0.683594 0.0078125 0.261719 C 0.414062 0.261719 0.824219 0.261719 1.238281 0.261719 Z M 1.238281 0.261719 "/>
</g>
</svg>
